<svg viewBox="-18 1 511 511.99899" xmlns="http://www.w3.org/2000/svg"><path d="m422.152344 341.246094h-367.414063c-12.621093 0-22.851562 10.234375-22.851562 22.855468v20.019532c0 4.96875 4.027343 8.996094 8.996093 8.996094h395.128907c4.96875 0 8.996093-4.027344 8.996093-8.996094v-20.019532c0-12.621093-10.234374-22.855468-22.855468-22.855468zm0 0" fill="#fc4e51"/><path d="m422.152344 341.246094h-57.703125c12.621093 0 22.851562 10.234375 22.851562 22.855468v29.015626h48.707031c4.972657 0 9-4.027344 9-8.996094v-20.019532c0-12.621093-10.234374-22.855468-22.855468-22.855468zm0 0" fill="#ea3942"/><path d="m422.152344 236.5625h-367.414063c-12.621093 0-22.851562-10.234375-22.851562-22.855469v-29.015625h413.121093v29.015625c0 12.621094-10.234374 22.855469-22.855468 22.855469zm0 0" fill="#fc4e51"/><path d="m387.300781 184.691406v29.015625c0 12.621094-10.230469 22.855469-22.851562 22.855469h57.703125c12.625 0 22.855468-10.234375 22.855468-22.855469v-29.015625zm0 0" fill="#ea3942"/><path d="m422.152344 321.003906h-367.414063c-12.621093 0-22.851562-10.234375-22.851562-22.855468v-43.324219h413.121093v43.324219c0 12.621093-10.234374 22.855468-22.855468 22.855468zm0 0" fill="#912c2c"/><path d="m387.300781 254.824219v43.324219c0 12.621093-10.230469 22.855468-22.851562 22.855468h57.703125c12.625 0 22.855468-10.234375 22.855468-22.855468v-43.324219zm0 0" fill="#7c1e1e"/><path d="m450.171875 388.511719h-423.453125c-10.332031 0-18.710938 8.378906-18.710938 18.710937 0 53.722656 43.550782 97.273438 97.273438 97.273438h266.332031c53.722657 0 97.273438-43.550782 97.273438-97.273438 0-10.332031-8.378907-18.710937-18.714844-18.710937zm0 0" fill="#efa335"/><path d="m450.171875 388.511719h-38.992187v18.710937c0 53.722656-43.550782 97.273438-97.273438 97.273438h57.707031c53.722657 0 97.273438-43.550782 97.273438-97.273438 0-10.332031-8.378907-18.710937-18.714844-18.710937zm0 0" fill="#fd8f31"/><path d="m440.410156 231.5c12.058594 0 22.226563 9.882812 22.238282 22.289062.011718 17.71875-20.460938 27.09375-44.246094 23.660157-22.214844-3.207031-22.492188-13.292969-44.988282-13.292969-22.496093 0-22.496093 13.292969-44.988281 13.292969-22.496093 0-22.496093-13.292969-44.988281-13.292969-22.496094 0-22.496094 13.292969-44.992188 13.292969-22.492187 0-22.492187-13.292969-44.988281-13.292969-22.492187 0-22.492187 13.292969-44.988281 13.292969s-22.496094-13.292969-44.988281-13.292969c-22.496094 0-22.777344 10.085938-44.988281 13.292969-23.785157 3.433593-44.257813-5.941407-44.246094-23.660157.011718-12.40625 10.179687-22.289062 22.238281-22.289062zm0 0" fill="#a0e557"/><path d="m445.9375 310.527344h-414.511719c-8.996093 0-16.738281 6.914062-17.160156 15.902344-.453125 9.597656 7.195313 17.519531 16.691406 17.519531h198.011719c10.246094 0 20.382812 2.152343 29.75 6.320312l61.574219 27.402344c15.359375 6.835937 33.019531 6.148437 47.800781-1.859375l42.515625-23.03125c10.703125-5.796875 22.683594-8.832031 34.851563-8.832031 9 0 16.742187-6.914063 17.164062-15.902344.453125-9.597656-7.191406-17.519531-16.6875-17.519531zm0 0" fill="#fccf3f"/><path d="m238.445312 7.503906c-214.550781.078125-230.4375 141.617188-230.4375 161.660156 0 10.332032 8.378907 18.710938 18.710938 18.710938h423.453125c10.335937 0 18.714844-8.378906 18.714844-18.710938 0-20.042968-15.886719-161.582031-230.441407-161.660156zm0 0" fill="#efa335"/><path d="m468.871094 168.066406c0-.019531 0-.042968-.003906-.066406-.007813-.382812-.023438-.792969-.042969-1.234375 0-.03125-.003907-.066406-.003907-.097656-.019531-.441407-.046874-.910157-.078124-1.40625-.003907-.03125-.003907-.066407-.007813-.097657-.035156-.511718-.074219-1.046874-.121094-1.613281-.003906-.019531-.003906-.039062-.003906-.058593-.203125-2.378907-.53125-5.226563-1.046875-8.460938 0 0 0 0 0-.003906-6.601562-41.578125-43.554688-147.453125-229.117188-147.523438-10.046874.003906-19.65625.320313-28.851562.914063 140.429688 9.121093 183.613281 84.296875 196.425781 129.335937 4.152344 14.605469-6.925781 29.109375-22.109375 29.109375h-357.191406c-7.902344 0-14.644531-4.90625-17.386719-11.832031-1.035156 6.496094-1.324219 11.425781-1.324219 14.132812 0 10.335938 8.378907 18.710938 18.710938 18.710938h423.453125c10.335937 0 18.714844-8.375 18.714844-18.710938 0-.332031-.007813-.699218-.015625-1.097656zm0 0" fill="#fd8f31"/><path d="m462.433594 250.757812c-1.503906-10.945312-10.964844-19.253906-22.023438-19.253906h-35.683594v42.335938c3.59375 1.46875 7.886719 2.773437 13.675782 3.609375 22.378906 3.230469 41.820312-4.878907 44.03125-20.609375zm0 0" fill="#93cc4a"/><path d="m462.433594 324.5625c-1.28125-7.957031-8.179688-14.035156-16.496094-14.035156h-41.210938v45.441406l5.886719-3.1875c10.699219-5.796875 22.679688-8.832031 34.851563-8.832031 8.378906 0 15.664062-6.003907 16.96875-14.089844zm0 0" fill="#efc03c"/><path d="m452.511719 381.117188v-17.015626c0-4.585937-1.015625-9.003906-2.90625-12.992187 11.273437-1.859375 19.976562-11.164063 20.519531-22.710937.3125-6.691407-2.054688-13.039063-6.667969-17.875-3.132812-3.285157-7.144531-5.605469-11.492187-6.730469.351562-1.851563.546875-3.738281.546875-5.644531v-17.773438c2.835937-1.410156 5.417969-3.078125 7.652343-5.015625 6.539063-5.664063 9.992188-13.125 9.984376-21.574219-.007813-13.035156-8.414063-24.132812-20.070313-28.164062 1.582031-3.710938 2.433594-7.75 2.433594-11.917969v-18.433594c13.363281-1.1875 23.875-12.441406 23.875-26.105469 0-1.96875-.414063-48.703124-36.441407-93.046874-18.304687-22.53125-42.535156-40.375-72.019531-53.035157-35.628906-15.296875-79.195312-23.0624998-129.484375-23.082031-57.558594.0195312-106.140625 10.167969-144.390625 30.160156-3.671875 1.917969-5.09375 6.453125-3.171875 10.125 1.917969 3.675782 6.457032 5.097656 10.125 3.175782 36.082032-18.859376 82.324219-28.429688 137.4375-28.449219 48.242188.015625 89.8125 7.371093 123.5625 21.863281 27.230469 11.691406 49.535156 28.078125 66.292969 48.707031 26.167969 32.207031 33.082031 68.757813 33.082031 83.582031 0 6.179688-5.027344 11.207032-11.207031 11.207032h-423.453125c-6.179688 0-11.207031-5.027344-11.207031-11.207032 0-6.855468 1.949219-23.511718 9.261719-42.457031 9.917968-25.699219 26.085937-47.582031 48.0625-65.035156 3.246093-2.578125 3.789062-7.300781 1.210937-10.546875s-7.300781-3.785156-10.546875-1.207031c-62.28125 49.472656-63 116.417969-63 119.246093 0 13.667969 10.515625 24.917969 23.878906 26.105469v18.4375c0 4.164063.847656 8.203125 2.433594 11.917969-11.660156 4.027344-20.0625 15.125-20.074219 28.160156-.003906 8.449219 3.449219 15.910156 9.988281 21.574219 2.234376 1.941406 4.8125 3.609375 7.652344 5.019531v17.769532c0 1.933593.199219 3.847656.558594 5.722656-10.113281 2.679687-17.667969 11.472656-18.171875 22.207031-.3125 6.691406 2.054687 13.039063 6.667969 17.875 3.695312 3.871094 8.605468 6.402344 13.847656 7.214844-1.871094 3.976562-2.902344 8.375-2.902344 12.933593v17.015626c-13.367187 1.1875-23.878906 12.4375-23.878906 26.105468 0 57.773438 47.003906 104.777344 104.777344 104.777344h266.332031c57.773437 0 104.777344-47.003906 104.777344-104.777344.003906-13.667968-10.511719-24.917968-23.875-26.105468zm-413.121094-185.738282h398.113281v18.328125c0 3.851563-1.445312 7.484375-3.996094 10.289063h-390.125c-2.546874-2.804688-3.992187-6.4375-3.992187-10.289063zm-17.640625 58.417969c.007812-8.15625 6.613281-14.789063 14.734375-14.789063h403.925781c8.117188 0 14.726563 6.632813 14.730469 14.789063.003906 4.070313-1.566406 7.417969-4.804687 10.222656-6.382813 5.527344-18.203126 7.824219-30.859376 6-8.910156-1.285156-13.597656-3.734375-18.5625-6.328125-6.621093-3.460937-13.46875-7.039062-27.5-7.039062-13.300781 0-20.210937 4.085937-26.3125 7.691406-5.296874 3.128906-9.484374 5.601562-18.679687 5.601562s-13.378906-2.472656-18.675781-5.601562c-6.097656-3.605469-13.011719-7.691406-26.308594-7.691406-13.300781 0-20.214844 4.085937-26.3125 7.691406-5.296875 3.128906-9.484375 5.601562-18.679688 5.601562-9.195312 0-13.378906-2.472656-18.675781-5.601562-6.097656-3.605469-13.011719-7.691406-26.3125-7.691406-13.296875 0-20.210937 4.085937-26.3125 7.691406-5.296875 3.128906-9.480469 5.601562-18.675781 5.601562s-13.378906-2.472656-18.675781-5.601562c-6.101563-3.605469-13.015625-7.691406-26.3125-7.691406-14.035157 0-20.878907 3.578125-27.5 7.039062-4.964844 2.59375-9.652344 5.042969-18.5625 6.328125-12.652344 1.824219-24.480469-.472656-30.859375-6-3.238282-2.804687-4.8125-6.152343-4.808594-10.222656zm2.542969 79.792969c-1.753907-1.835938-2.652344-4.253906-2.53125-6.808594.226562-4.824219 4.566406-8.75 9.667969-8.75h4.09375.015624.015626 290.976562c4.144531 0 7.503906-3.359375 7.503906-7.503906 0-4.144532-3.359375-7.503906-7.503906-7.503906h-286.335938c-.527343-1.5625-.804687-3.203126-.804687-4.875v-13.207032c3.09375.464844 6.320313.703125 9.636719.703125 3.433594 0 6.960937-.253906 10.535156-.769531 11.445312-1.652344 17.777344-4.960938 23.367188-7.882812 5.921874-3.09375 10.203124-5.328126 20.550781-5.328126 9.195312 0 13.378906 2.472657 18.675781 5.601563 6.101562 3.601563 13.015625 7.6875 26.3125 7.6875 13.300781 0 20.210938-4.085937 26.3125-7.6875 5.296875-3.128906 9.480469-5.601563 18.675781-5.601563 9.195313 0 13.378907 2.472657 18.675781 5.601563 6.101563 3.601563 13.015626 7.6875 26.3125 7.6875 13.300782 0 20.214844-4.085937 26.3125-7.6875 5.296876-3.128906 9.484376-5.601563 18.679688-5.601563 9.191406 0 13.375 2.472657 18.671875 5.601563 6.101563 3.601563 13.015625 7.6875 26.3125 7.6875 13.300781 0 20.214844-4.085937 26.3125-7.6875 5.300781-3.128906 9.484375-5.601563 18.679687-5.601563 10.347657 0 14.625 2.234376 20.550782 5.328126 5.585937 2.921874 11.921875 6.230468 23.367187 7.882812 7.03125 1.015625 13.867188.996094 20.171875.054688v13.21875c0 1.671874-.28125 3.3125-.804687 4.875h-75.125c-4.148438 0-7.507813 3.359374-7.507813 7.503906 0 4.144531 3.359375 7.503906 7.507813 7.503906h79.765625.015625.015625 4.566406c2.539062 0 4.90625 1.015625 6.660156 2.855469 1.753906 1.835937 2.652344 4.253906 2.535156 6.808593-.230468 4.824219-4.566406 8.75-9.667968 8.75-3.992188 0-7.972656.304688-11.910156.894532-.101563.011718-.203126.027344-.304688.042968-9.152344 1.40625-18.050781 4.378907-26.210938 8.800782l-42.515624 23.03125c-12.644532 6.847656-28.039063 7.449218-41.175782 1.601562l-61.578125-27.402344c-10.390625-4.625-21.425781-6.96875-32.800781-6.96875h-184.921875c-.039063 0-.078125 0-.117187 0h-12.972657c-2.542969 0-4.90625-1.015624-6.664062-2.855468zm413.207031 30.511718v16.90625h-63.234375l39.921875-21.625c5.734375-3.109374 11.921875-5.332031 18.296875-6.621093 3.179687 2.886719 5.015625 6.960937 5.015625 11.339843zm-128.171875 16.90625h-269.9375v-16.90625c0-5.097656 2.519531-9.800781 6.667969-12.648437h182.910156c9.257812 0 18.238281 1.90625 26.699219 5.671875zm62.285156 115.980469h-266.335937c-49.496094 0-89.765625-40.265625-89.765625-89.765625 0-6.179687 5.027343-11.207031 11.207031-11.207031h423.453125c6.179687 0 11.207031 5.027344 11.207031 11.207031 0 49.5-40.269531 89.765625-89.765625 89.765625zm0 0"/></svg>